<svg id="visual" viewBox="0 0 900 600" width="900" height="600" xmlns="http://www.w3.org/2000/svg" xmlns:xlink="http://www.w3.org/1999/xlink" version="1.1"><g stroke-width="1" stroke-linejoin="bevel"><path d="M367 291L282 260L267 380Z" fill="#03141f" stroke="#03141f"></path><path d="M282 260L197 298L267 380Z" fill="#051723" stroke="#051723"></path><path d="M197 298L187 371L267 380Z" fill="#051723" stroke="#051723"></path><path d="M267 380L431 383L367 291Z" fill="#09202e" stroke="#09202e"></path><path d="M367 291L287 176L282 260Z" fill="#00101c" stroke="#00101c"></path><path d="M282 260L230 162L197 298Z" fill="#051723" stroke="#051723"></path><path d="M187 371L229 484L267 380Z" fill="#09202e" stroke="#09202e"></path><path d="M267 380L417 512L431 383Z" fill="#071a27" stroke="#071a27"></path><path d="M287 176L230 162L282 260Z" fill="#0a2332" stroke="#0a2332"></path><path d="M496 205L423 164L367 291Z" fill="#00101c" stroke="#00101c"></path><path d="M367 291L423 164L287 176Z" fill="#051723" stroke="#051723"></path><path d="M287 176L284 84L230 162Z" fill="#081d2a" stroke="#081d2a"></path><path d="M197 298L109 336L187 371Z" fill="#00101c" stroke="#00101c"></path><path d="M187 371L114 407L229 484Z" fill="#071a27" stroke="#071a27"></path><path d="M101 183L109 336L197 298Z" fill="#0e3141" stroke="#0e3141"></path><path d="M229 484L265 520L267 380Z" fill="#00101c" stroke="#00101c"></path><path d="M109 336L114 407L187 371Z" fill="#03141f" stroke="#03141f"></path><path d="M229 484L201 600L265 520Z" fill="#0a2332" stroke="#0a2332"></path><path d="M417 512L491 437L431 383Z" fill="#051723" stroke="#051723"></path><path d="M537 294L496 205L367 291Z" fill="#0d2e3d" stroke="#0d2e3d"></path><path d="M265 520L417 512L267 380Z" fill="#0a2332" stroke="#0a2332"></path><path d="M537 294L367 291L431 383Z" fill="#0c2a39" stroke="#0c2a39"></path><path d="M491 437L537 294L431 383Z" fill="#0b2736" stroke="#0b2736"></path><path d="M395 73L287 176L423 164Z" fill="#081d2a" stroke="#081d2a"></path><path d="M395 73L284 84L287 176Z" fill="#071a27" stroke="#071a27"></path><path d="M230 162L101 183L197 298Z" fill="#0a2332" stroke="#0a2332"></path><path d="M78 71L101 183L230 162Z" fill="#051723" stroke="#051723"></path><path d="M491 437L567 305L537 294Z" fill="#0c2a39" stroke="#0c2a39"></path><path d="M537 294L609 222L496 205Z" fill="#0d2e3d" stroke="#0d2e3d"></path><path d="M0 390L114 407L109 336Z" fill="#051723" stroke="#051723"></path><path d="M0 390L86 464L114 407Z" fill="#0e3141" stroke="#0e3141"></path><path d="M114 407L86 464L229 484Z" fill="#051723" stroke="#051723"></path><path d="M284 84L236 68L230 162Z" fill="#051723" stroke="#051723"></path><path d="M462 106L395 73L423 164Z" fill="#03141f" stroke="#03141f"></path><path d="M284 84L270 0L236 68Z" fill="#0b2736" stroke="#0b2736"></path><path d="M617 113L462 106L496 205Z" fill="#0e3141" stroke="#0e3141"></path><path d="M496 205L462 106L423 164Z" fill="#09202e" stroke="#09202e"></path><path d="M201 600L333 600L265 520Z" fill="#09202e" stroke="#09202e"></path><path d="M265 520L333 600L417 512Z" fill="#09202e" stroke="#09202e"></path><path d="M417 512L535 520L491 437Z" fill="#09202e" stroke="#09202e"></path><path d="M86 464L201 600L229 484Z" fill="#071a27" stroke="#071a27"></path><path d="M431 600L535 520L417 512Z" fill="#03141f" stroke="#03141f"></path><path d="M491 437L603 419L567 305Z" fill="#0d2e3d" stroke="#0d2e3d"></path><path d="M333 600L431 600L417 512Z" fill="#0d2e3d" stroke="#0d2e3d"></path><path d="M101 183L0 273L109 336Z" fill="#0a2332" stroke="#0a2332"></path><path d="M535 520L603 419L491 437Z" fill="#09202e" stroke="#09202e"></path><path d="M0 273L0 390L109 336Z" fill="#0d2e3d" stroke="#0d2e3d"></path><path d="M86 464L87 600L201 600Z" fill="#0e3141" stroke="#0e3141"></path><path d="M567 305L609 222L537 294Z" fill="#09202e" stroke="#09202e"></path><path d="M690 315L609 222L567 305Z" fill="#051723" stroke="#051723"></path><path d="M101 183L0 217L0 273Z" fill="#00101c" stroke="#00101c"></path><path d="M0 69L0 217L101 183Z" fill="#0e3141" stroke="#0e3141"></path><path d="M393 0L284 84L395 73Z" fill="#00101c" stroke="#00101c"></path><path d="M393 0L270 0L284 84Z" fill="#051723" stroke="#051723"></path><path d="M236 68L78 71L230 162Z" fill="#09202e" stroke="#09202e"></path><path d="M270 0L225 0L236 68Z" fill="#0c2a39" stroke="#0c2a39"></path><path d="M506 0L393 0L395 73Z" fill="#081d2a" stroke="#081d2a"></path><path d="M506 0L395 73L462 106Z" fill="#0e3141" stroke="#0e3141"></path><path d="M128 0L78 71L236 68Z" fill="#00101c" stroke="#00101c"></path><path d="M535 520L636 468L603 419Z" fill="#0d2e3d" stroke="#0d2e3d"></path><path d="M431 600L524 600L535 520Z" fill="#0e3141" stroke="#0e3141"></path><path d="M0 536L87 600L86 464Z" fill="#0d2e3d" stroke="#0d2e3d"></path><path d="M595 600L636 468L535 520Z" fill="#0c2a39" stroke="#0c2a39"></path><path d="M691 371L690 315L567 305Z" fill="#0c2a39" stroke="#0c2a39"></path><path d="M225 0L128 0L236 68Z" fill="#03141f" stroke="#03141f"></path><path d="M0 390L0 536L86 464Z" fill="#0e3141" stroke="#0e3141"></path><path d="M710 164L617 113L609 222Z" fill="#09202e" stroke="#09202e"></path><path d="M609 222L617 113L496 205Z" fill="#03141f" stroke="#03141f"></path><path d="M617 113L506 0L462 106Z" fill="#081d2a" stroke="#081d2a"></path><path d="M691 371L567 305L603 419Z" fill="#081d2a" stroke="#081d2a"></path><path d="M636 468L691 371L603 419Z" fill="#0b2736" stroke="#0b2736"></path><path d="M0 0L0 69L78 71Z" fill="#0e3141" stroke="#0e3141"></path><path d="M78 71L0 69L101 183Z" fill="#09202e" stroke="#09202e"></path><path d="M524 600L595 600L535 520Z" fill="#0d2e3d" stroke="#0d2e3d"></path><path d="M775 438L772 317L691 371Z" fill="#0c2a39" stroke="#0c2a39"></path><path d="M0 536L0 600L87 600Z" fill="#0a2332" stroke="#0a2332"></path><path d="M690 315L710 164L609 222Z" fill="#051723" stroke="#051723"></path><path d="M617 113L628 0L506 0Z" fill="#0c2a39" stroke="#0c2a39"></path><path d="M772 317L710 164L690 315Z" fill="#00101c" stroke="#00101c"></path><path d="M128 0L0 0L78 71Z" fill="#09202e" stroke="#09202e"></path><path d="M710 164L711 120L617 113Z" fill="#0a2332" stroke="#0a2332"></path><path d="M662 0L628 0L617 113Z" fill="#0e3141" stroke="#0e3141"></path><path d="M775 438L691 371L636 468Z" fill="#0e3141" stroke="#0e3141"></path><path d="M691 371L772 317L690 315Z" fill="#071a27" stroke="#071a27"></path><path d="M710 164L779 110L711 120Z" fill="#071a27" stroke="#071a27"></path><path d="M703 600L739 514L636 468Z" fill="#0d2e3d" stroke="#0d2e3d"></path><path d="M711 120L662 0L617 113Z" fill="#0c2a39" stroke="#0c2a39"></path><path d="M739 514L775 438L636 468Z" fill="#051723" stroke="#051723"></path><path d="M595 600L703 600L636 468Z" fill="#0a2332" stroke="#0a2332"></path><path d="M739 514L798 461L775 438Z" fill="#00101c" stroke="#00101c"></path><path d="M807 600L798 461L739 514Z" fill="#051723" stroke="#051723"></path><path d="M775 438L900 377L772 317Z" fill="#0c2a39" stroke="#0c2a39"></path><path d="M819 203L779 110L710 164Z" fill="#03141f" stroke="#03141f"></path><path d="M711 120L772 0L662 0Z" fill="#0e3141" stroke="#0e3141"></path><path d="M819 203L710 164L772 317Z" fill="#081d2a" stroke="#081d2a"></path><path d="M900 272L819 203L772 317Z" fill="#09202e" stroke="#09202e"></path><path d="M900 0L772 0L779 110Z" fill="#00101c" stroke="#00101c"></path><path d="M779 110L772 0L711 120Z" fill="#0e3141" stroke="#0e3141"></path><path d="M703 600L807 600L739 514Z" fill="#0b2736" stroke="#0b2736"></path><path d="M900 377L900 272L772 317Z" fill="#0c2a39" stroke="#0c2a39"></path><path d="M900 377L775 438L798 461Z" fill="#0e3141" stroke="#0e3141"></path><path d="M819 203L900 131L779 110Z" fill="#0d2e3d" stroke="#0d2e3d"></path><path d="M900 462L900 377L798 461Z" fill="#071a27" stroke="#071a27"></path><path d="M807 600L900 462L798 461Z" fill="#09202e" stroke="#09202e"></path><path d="M900 272L900 170L819 203Z" fill="#0e3141" stroke="#0e3141"></path><path d="M900 170L900 131L819 203Z" fill="#0e3141" stroke="#0e3141"></path><path d="M807 600L900 600L900 462Z" fill="#071a27" stroke="#071a27"></path><path d="M900 131L900 0L779 110Z" fill="#081d2a" stroke="#081d2a"></path></g></svg>